<svg xmlns="http://www.w3.org/2000/svg" width="24" height="24" viewBox="0 0 24 24" fill="none" aria-hidden="true">
  <path d="M17.5077 12.6357C17.5077 12.9144 17.2797 13.1393 17.001 13.1356L12.9118 13.081L12.8574 17.1567C12.8538 17.4302 12.631 17.65 12.3575 17.65H11.3575C11.0788 17.65 10.8539 17.4221 10.8576 17.1434L10.9122 13.0543L6.83649 12.9999C6.56298 12.9963 6.34317 12.7735 6.34317 12.5L6.34317 11.5001C6.34317 11.2213 6.57112 10.9964 6.84984 11.0001L10.9389 11.0547L10.9933 6.97885C10.9969 6.70533 11.2197 6.48552 11.4932 6.48552H12.4931C12.7719 6.48552 12.9968 6.71347 12.9931 6.9922L12.9385 11.0814L17.0144 11.1358C17.2879 11.1394 17.5077 11.3622 17.5077 11.6357V12.6357Z" fill="currentColor"/>
  <path fill-rule="evenodd" clip-rule="evenodd" d="M4.22183 4.22183C-0.0739419 8.51759 -0.0739419 15.4824 4.22183 19.7782C8.51759 24.0739 15.4824 24.0739 19.7782 19.7782C24.0739 15.4824 24.0739 8.51759 19.7782 4.22183C15.4824 -0.0739419 8.51759 -0.0739419 4.22183 4.22183ZM5.63604 18.364C2.12132 14.8492 2.12132 9.15076 5.63604 5.63604C9.15076 2.12132 14.8492 2.12132 18.364 5.63604C21.8787 9.15076 21.8787 14.8492 18.364 18.364C14.8492 21.8787 9.15076 21.8787 5.63604 18.364Z" fill="currentColor"/>
</svg>
