<svg xmlns="http://www.w3.org/2000/svg" width="24" height="24" viewBox="0 0 24 24" fill="none" aria-hidden="true">
  <path d="M12.052 1C15.0226 1.00003 17.7196 2.1805 19.696 4.0957L19.8618 4.25977C20.6238 5.03 21.2727 5.91285 21.7817 6.88135C21.846 7.00357 21.7953 7.15391 21.6716 7.21533L20.3284 7.88257C20.2047 7.94398 20.0548 7.89312 19.99 7.77124C19.5771 6.99524 19.0535 6.28645 18.4399 5.66626L18.3042 5.53198C16.6858 3.96374 14.4824 3.00003 12.052 3C7.08953 3 3.06665 7.02288 3.06665 11.9854C3.06665 16.9478 7.08953 20.9707 12.052 20.9707C14.4824 20.9707 16.6858 20.007 18.3042 18.4387L18.4419 18.3025C19.0649 17.6724 19.5951 16.9509 20.0107 16.1604C20.075 16.0382 20.2244 15.9868 20.3484 16.0476L21.6951 16.7083C21.819 16.7691 21.8705 16.919 21.8069 17.0415C21.2947 18.0279 20.6376 18.9263 19.864 19.7087L19.696 19.875C17.7196 21.7902 15.0226 22.9707 12.052 22.9707C5.98496 22.9707 1.06641 18.0524 1.06641 11.9854C1.06641 5.91831 5.98496 1 12.052 1Z" fill="currentColor"/>
  <path fill-rule="evenodd" clip-rule="evenodd" d="M8.13745 7.90796C8.13752 6.75335 9.38749 6.03163 10.3875 6.60889L17.4751 10.7009L17.5659 10.7576C18.4448 11.348 18.4448 12.652 17.5659 13.2424L17.4751 13.2991L10.3875 17.3909L10.2932 17.4414C9.31076 17.9229 8.13752 17.2106 8.13745 16.092V7.90796ZM10.1375 15.2258L15.7253 11.9998L10.1375 8.77417V15.2258Z" fill="currentColor"/>
</svg>
