<svg xmlns="http://www.w3.org/2000/svg" width="24" height="24" viewBox="0 0 24 24" fill="none" aria-hidden="true">
  <path fill-rule="evenodd" clip-rule="evenodd" d="M5.24607 1.91398C7.64843 0.635493 10.6133 0.713945 12.5267 2.62736C14.305 4.40562 14.4986 7.08897 13.4906 9.39035L21.9045 17.8042C23.0761 18.9758 23.0761 20.8753 21.9045 22.0469C20.7329 23.2184 18.8334 23.2184 17.6618 22.0469L9.19026 13.5753C6.93758 14.4859 4.35395 14.2536 2.62724 12.5269C0.713823 10.6134 0.635371 7.64855 1.91386 5.24619C2.24604 4.62202 3.08534 4.49968 3.58279 4.99713L5.98601 7.40034L7.40022 5.98613L4.99701 3.58292C4.99701 3.58292 4.99701 3.58292 4.99701 3.58292C4.49956 3.08547 4.62188 2.24616 5.24607 1.91398ZM5.70412 2.87581L5.69683 2.8831L5.70412 2.87581ZM7.43737 3.19485L10.2287 5.98613L5.98601 10.2288L3.19473 7.43749C2.84079 8.86348 3.1612 10.2324 4.04146 11.1126C5.17259 12.2438 7.10977 12.4505 8.93963 11.4899L9.5912 11.1478L19.0761 20.6327C19.4666 21.0232 20.0997 21.0232 20.4903 20.6327C20.8808 20.2421 20.8808 19.609 20.4903 19.2184L11.0303 9.75845L11.4042 9.09678C12.4613 7.22597 12.276 5.20501 11.1125 4.04158C10.2323 3.16132 8.86336 2.84091 7.43737 3.19485Z" fill="currentColor"/>
</svg>
