<svg xmlns="http://www.w3.org/2000/svg" width="24" height="24" viewBox="0 0 24 24" fill="none" aria-hidden="true">
  <path d="M12.0324 2.97485C7.05477 2.97485 3.01959 7.00977 3.01959 11.9874V12.8769C3.01959 17.3626 6.65592 21 11.1419 21H17.2374C17.3755 21 17.4874 20.8881 17.4874 20.75V19.25C17.4874 19.1119 17.3755 19 17.2374 19H11.1419C7.76078 19 5.01959 16.2583 5.01959 12.8769V11.9874C5.01959 8.1144 8.15928 4.97485 12.0324 4.97485H14.0181C16.7945 4.97485 19.0451 7.22551 19.0451 10.0018V13.7562C19.0451 14.4591 18.4754 15.0288 17.7725 15.0288C17.0697 15.0288 16.4999 14.4591 16.4999 13.7562V6.9945H14.4999V7.62184C13.8876 7.24558 13.1144 6.98836 12.1464 6.98836C9.47329 6.98836 7.04352 9.18247 7.04352 11.9813C7.04352 14.7802 9.47329 16.9743 12.1464 16.9743H12.9078C13.0459 16.9743 13.1578 16.8624 13.1578 16.7243V15.2243C13.1578 15.0862 13.0459 14.9743 12.9078 14.9743H12.1464C10.4934 14.9743 9.04352 13.593 9.04352 11.9813C9.04352 10.3697 10.4934 8.98836 12.1464 8.98836C13.4996 8.98836 14.1682 9.84989 14.4999 10.5605V13.7562C14.4999 15.5636 15.9651 17.0288 17.7725 17.0288C19.5799 17.0288 21.0451 15.5636 21.0451 13.7562V10.0018C21.0451 6.12095 17.899 2.97485 14.0181 2.97485H12.0324Z" fill="currentColor"/>
</svg>
