<svg xmlns="http://www.w3.org/2000/svg" width="24" height="24" viewBox="0 0 48 48" fill="none" aria-hidden="true">
  <g>
<path d="M24.1179 16.25C22.8753 16.25 21.8679 17.2574 21.8679 18.5V20.5H24.3679C24.9202 20.5 25.3679 20.9477 25.3679 21.5V23C25.3679 23.5523 24.9202 24 24.3679 24H21.8679V26.5H28.3679C28.9202 26.5 29.3679 26.9477 29.3679 27.5V29C29.3679 29.5523 28.9202 30 28.3679 30H19.3679C18.8156 30 18.3679 29.5523 18.3679 29V18.5C18.3679 15.3244 20.9423 12.75 24.1179 12.75H24.3958C26.5737 12.75 28.5647 13.9805 29.5387 15.9285C29.7566 16.3642 29.58 16.894 29.1443 17.1118L27.5915 17.8882C27.1559 18.106 26.6261 17.9294 26.4082 17.4938C26.0271 16.7315 25.248 16.25 24.3958 16.25H24.1179Z" fill="currentColor"/>
<path d="M8 6V25.5791C8.00005 29.3841 9.82837 32.6288 12.4453 35.3384C15.069 38.0549 18.3558 40.0912 20.9111 41.4141C22.8512 42.4184 25.1158 42.4048 27.0542 41.3799C29.6126 40.0271 32.9104 37.9554 35.5444 35.229C38.1764 32.5047 40 29.2853 40 25.5791V6H8ZM44 25.5791C44 30.6908 41.4691 34.8537 38.4214 38.0083C35.3755 41.1609 31.6678 43.4651 28.9238 44.916C25.8337 46.5499 22.1836 46.5769 19.0723 44.9663C16.3234 43.5432 12.6139 41.271 9.56787 38.1172C6.51521 34.9565 4.00005 30.7686 4 25.5791V5.99805C4 3.78621 5.79356 2 8 2H40C42.209 2 44 3.79075 44 6V25.5791Z" fill="currentColor"/>
</g>
</svg>
