<svg xmlns="http://www.w3.org/2000/svg" width="24" height="24" viewBox="0 0 24 24" fill="none" aria-hidden="true">
  <path d="M14.75 9.375C14.75 10.1344 14.1344 10.75 13.375 10.75C12.6156 10.75 12 10.1344 12 9.375C12 8.61561 12.6156 8 13.375 8C14.1344 8 14.75 8.61561 14.75 9.375Z" fill="currentColor"/>
  <path d="M8.625 10.75C9.38439 10.75 10 10.1344 10 9.375C10 8.61561 9.38439 8 8.625 8C7.86561 8 7.25 8.61561 7.25 9.375C7.25 10.1344 7.86561 10.75 8.625 10.75Z" fill="currentColor"/>
  <path fill-rule="evenodd" clip-rule="evenodd" d="M5.64858 4.10452C6.21858 3.42263 7.06159 3.02856 7.95033 3.02856H16.7004L18.7824 8.75396L22.0267 9.97057C22.6121 10.1901 23 10.7498 23 11.3751V19.0001H19.8293C19.4175 20.1653 18.3062 21.0001 17 21.0001C15.6938 21.0001 14.5825 20.1653 14.1707 19.0001H9.82929C9.41746 20.1653 8.30622 21.0001 7 21.0001C5.69378 21.0001 4.58254 20.1653 4.17071 19.0001H1V9.66566L5.64858 4.10452ZM14.1707 17.0001C14.5825 15.8349 15.6938 15.0001 17 15.0001C18.3062 15.0001 19.4175 15.8349 19.8293 17.0001H21V11.7216L17.2176 10.3032L15.2996 5.02856H7.95033C7.65408 5.02856 7.37308 5.15992 7.18308 5.38722L3 10.3915V17.0001H4.17071C4.58254 15.8349 5.69378 15.0001 7 15.0001C8.30622 15.0001 9.41746 15.8349 9.82929 17.0001H14.1707ZM6 18.0001C6 17.4478 6.44772 17.0001 7 17.0001C7.55228 17.0001 8 17.4478 8 18.0001C8 18.5523 7.55228 19.0001 7 19.0001C6.44772 19.0001 6 18.5523 6 18.0001ZM16 18.0001C16 17.4478 16.4477 17.0001 17 17.0001C17.5523 17.0001 18 17.4478 18 18.0001C18 18.5523 17.5523 19.0001 17 19.0001C16.4477 19.0001 16 18.5523 16 18.0001Z" fill="currentColor"/>
</svg>
